<svg width="45" height="45" viewBox="0 0 45 45" fill="none" xmlns="http://www.w3.org/2000/svg">
<g clip-path="url(#clip0_17_5)">
<path fill-rule="evenodd" clip-rule="evenodd" d="M6 26.3481C6 29.8556 9.22025 32.6977 13.1985 32.6977H27.5663V20.5751H19.5692V26.6134H15.771C14.7772 26.6134 13.9703 25.9019 13.9703 25.0256V19.1376C13.9703 18.2627 14.4582 17.5499 15.4514 17.5499H21.8766L25.4754 13.0301H13.1985C9.22025 13.0301 6 16.1645 6 19.6729V26.3481ZM30.7619 32.6977H38.7442V14.5881C38.7442 13.7118 37.9389 13 36.945 13H29.0756L25.4755 17.5375H28.9624C29.9561 17.5375 30.7618 18.2489 30.7618 19.1246L30.7619 32.6977Z" fill="white"/>
</g>
<defs>
<clipPath id="clip0_17_5">
<rect width="33" height="19.6977" fill="white" transform="translate(6 13)"/>
</clipPath>
</defs>
</svg>
